# xmcd
#
# Track frame offsets:
#	183
#	11463
#	24158
#	35965
#	48078
#	59678
#	72135
#	85578
#	102328
#	122003
#	139560
#	156193
#	174745
#	208775
#	229030
#	246763
#	269593
#	291198
#	308528
#	325328
#
# Disc length: 4572 seconds
#
# Revision: 1
# Processed by: cddbd v1.5.1PL0 Copyright (c) Steve Scherf et al.
# Submitted via: CDex 1.50Beta5
#
DISCID=1611da14
DTITLE=Various Artist - Motown History Vol.2
DYEAR=1999
DGENRE=Pop
TTITLE0=The Marvelettes/Please Mr. Postman
TTITLE1=Mary Wells/My Guy
TTITLE2=Diana Ross and Supremes/Baby Love
TTITLE3=Martha Reeves and The Vandellas/Dancing In The Street
TTITLE4=Elgins/Heaven Must Have Sent You
TTITLE5=The Supremes/You Keep Me Hangin' On
TTITLE6=Marvin Gaye and Tammi Terrell/The Onion Song
TTITLE7=Diana Ross/Ain't No Mountain High Enough
TTITLE8=Gradys Knmight and The Pips/Help Me Make It Through The Night
TTITLE9=Syreeta/Your Kiss Is Sweet
TTITLE10=Thelma Houston/Don't Leave Me This Way
TTITLE11=Diana Ross/Upside Down
TTITLE12=Teena Marie/I Need Your Lovin'
TTITLE13=Lionel Richie and Diana Ross/Endless Love
TTITLE14=Charlene/I've Never Been To Me
TTITLE15=Mary Jane Girls/In My House
TTITLE16=Milira/Mercy Mercy Me [The Ecology]
TTITLE17=Shanice/I Love Your Smile
TTITLE18=Zhan将ア/Sending My Love
TTITLE19=Missjones/2 Way Street
EXTD=
EXTT0=
EXTT1=
EXTT2=
EXTT3=
EXTT4=
EXTT5=
EXTT6=
EXTT7=
EXTT8=
EXTT9=
EXTT10=
EXTT11=
EXTT12=
EXTT13=
EXTT14=
EXTT15=
EXTT16=
EXTT17=
EXTT18=
EXTT19=
PLAYORDER=
